<?xml version="1.0" encoding="UTF-8"?>
<svg width="507px" height="90px" viewBox="0 0 507 90" version="1.1" xmlns="http://www.w3.org/2000/svg" xmlns:xlink="http://www.w3.org/1999/xlink">
    <!-- Generator: Sketch 59.1 (86144) - https://sketch.com -->
    <title>编组备份 2</title>
    <desc>Created with Sketch.</desc>
    <defs>
        <polygon id="path-1" points="0.01370625 0.946243478 48.0110813 0.946243478 48.0110813 72 0.01370625 72"></polygon>
        <polygon id="path-3" points="0 90 507 90 507 0 0 0"></polygon>
    </defs>
    <g id="组件" stroke="none" stroke-width="1" fill="none" fill-rule="evenodd">
        <g id="编组备份-2">
            <g id="编组" transform="translate(440.000000, 18.000000)">
                <mask id="mask-2" fill="white">
                    <use xlink:href="#path-1"></use>
                </mask>
                <g id="Clip-2"></g>
                <path d="M24.0633938,39.6330696 C32.2839563,39.6330696 37.3935188,43.9242 37.3935188,50.821113 C37.3935188,57.7307217 32.2839563,62.0250261 24.0633938,62.0250261 C15.7790813,62.0250261 10.6312688,57.7307217 10.6312688,50.821113 C10.6312688,43.9242 15.7790813,39.6330696 24.0633938,39.6330696 M24.0633938,10.9282 C30.7730813,10.9282 35.1080813,14.8511565 35.1080813,20.9323739 C35.1080813,26.661287 30.9802688,30.0795913 24.0633938,30.0795913 C17.1465188,30.0795913 13.0187063,26.661287 13.0187063,20.9323739 C13.0187063,14.8511565 17.3568938,10.9282 24.0633938,10.9282 M24.0633938,72.0006348 C38.8342688,72.0006348 48.0110813,64.3007217 48.0110813,51.916113 C48.0110813,44.5050261 44.7853313,38.8078522 38.6812688,35.4435043 L38.0852063,35.1134174 L38.6589563,34.7484174 C43.3477688,31.7332 45.7256438,26.9183739 45.7256438,20.4372435 C45.7256438,6.97033043 34.8467063,0.946243478 24.0633938,0.946243478 C13.2800813,0.946243478 2.40114375,6.97033043 2.40114375,20.4372435 C2.40114375,26.9310696 4.72164375,31.7458957 9.29889375,34.7484174 L9.85670625,35.1134174 L9.27339375,35.4435043 C3.21714375,38.8332435 0.01370625,44.5304174 0.01370625,51.916113 C0.01370625,64.1166348 9.45508125,72.0006348 24.0633938,72.0006348" id="Fill-1" fill="#000000" mask="url(#mask-2)"></path>
            </g>
            <path d="M131.055958,54.7271124 C131.055958,40.7563944 141.042983,30.221203 154.286232,30.221203 C168.026302,30.221203 177.257021,40.0705592 177.257021,54.7271124 C177.257021,69.3074616 168.026302,79.10284 154.286232,79.10284 C141.042983,79.10284 131.055958,68.6248016 131.055958,54.7271124 L131.055958,54.7271124 Z M154.817861,90 C162.751153,90 170.301546,87.3519139 175.931113,82.6685482 L175.931113,88.9363203 L186.664949,88.9363203 L186.664949,20.3813724 L175.931113,20.3813724 L175.931113,26.6872464 C170.203448,21.9784794 162.646726,19.3176927 154.817861,19.3176927 C145.10298,19.3176927 136.258325,22.9437291 129.907261,29.5290175 C123.641637,36.0285765 120.189215,44.9761863 120.189215,54.7271124 C120.189215,64.468513 123.641637,73.400247 129.910425,79.8648792 C136.251996,86.4057153 145.096651,90 154.817861,90 L154.817861,90 Z M200.762602,88.8093138 L211.629345,88.8093138 L211.629345,0 L200.762602,0 L200.762602,88.8093138 Z M343.194781,47.2178515 C345.802293,36.5937555 354.950736,29.2908802 365.887097,29.2908802 C376.715867,29.2908802 385.035222,36.4413477 386.949719,47.2178515 L343.194781,47.2178515 Z M365.887097,89.7364615 C379.193636,89.7364615 389.557231,83.986241 395.860828,73.0986065 L396.405114,72.1619333 L387.092119,66.1576998 L386.494037,67.173752 C381.579636,75.5784089 375.032376,79.5029106 365.887097,79.5029106 C353.150161,79.5029106 343.359333,69.9329688 342.688468,57.0513318 L398,57.0513318 L398,53.5237255 C397.933546,43.1536426 394.693143,34.3806668 388.62688,28.1446463 C382.918201,22.2832951 374.937442,19.0541542 366.149747,19.0541542 C346.238988,19.0541542 331.79008,33.9456694 331.79008,54.4635738 C331.79008,75.2323161 345.811786,89.7364615 365.887097,89.7364615 L365.887097,89.7364615 Z M10.866743,30.4879167 L41.982842,30.4879167 L41.982842,20.2480155 L0,20.2480155 L0,88.9363203 L10.866743,88.9363203 L10.866743,30.4879167 Z M57.5266514,47.2178515 C60.1341634,36.5937555 69.2826066,29.2908802 80.2221321,29.2908802 C91.0509016,29.2908802 99.3702573,36.4413477 101.281589,47.2178515 L57.5266514,47.2178515 Z M112.33187,53.5237255 C112.268581,43.1536426 109.028178,34.3806668 102.958751,28.1446463 C97.2500716,22.2832951 89.2693127,19.0541542 80.484782,19.0541542 C60.5740228,19.0541542 46.1219508,33.9456694 46.1219508,54.4635738 C46.1219508,75.2323161 60.1436568,89.7364615 80.2221321,89.7364615 C93.5255065,89.7364615 103.892265,83.986241 110.195862,73.0986065 L110.736984,72.1619333 L101.423989,66.1576998 L100.829072,67.173752 C95.9178354,75.5784089 89.3674109,79.5029106 80.2221321,79.5029106 C67.482031,79.5029106 57.6912031,69.9329688 57.0235028,57.0513318 L112.33187,57.0513318 L112.33187,53.5237255 Z M236.593741,44.8968072 C236.593741,35.7205856 245.042839,29.5575939 252.941322,29.5575939 C262.532789,29.5575939 268.491461,36.3524431 268.491461,47.2877051 L268.491461,88.8061386 L279.358204,88.8061386 L279.358204,45.9604869 C279.358204,38.0289293 283.725153,29.5575939 295.971599,29.5575939 C305.496613,29.5575939 311.657809,36.5175516 311.657809,47.2877051 L311.657809,88.8061386 L322.521388,88.8061386 L322.521388,47.2877051 C322.521388,30.0370436 312.857138,19.3176927 297.297507,19.3176927 C288.130077,19.3176927 280.203114,23.273946 275.260233,30.2370788 C272.010336,24.9218557 265.969389,19.3176927 254.925437,19.3176927 C247.463649,19.3176927 241.071447,21.9816546 236.593741,26.8904569 L236.593741,20.2511907 L225.726998,20.2511907 L225.726998,88.8061386 L236.593741,88.8061386 L236.593741,44.8968072 Z" id="Fill-3" fill="#000000"></path>
            <mask id="mask-4" fill="white">
                <use xlink:href="#path-3"></use>
            </mask>
            <g id="Clip-6"></g>
            <polygon id="Fill-5" fill="#000000" mask="url(#mask-4)" points="496 90 506 90 506 39 496 39"></polygon>
            <path d="M500.551896,34 C504.106786,34 507,31.1060982 507,27.5515617 C507,23.9390183 504.106786,21 500.551896,21 C496.941866,21 494,23.9390183 494,27.5515617 C494,31.1060982 496.941866,34 500.551896,34" id="Fill-7" fill="#000000" mask="url(#mask-4)"></path>
        </g>
    </g>
</svg>